<svg width="48" height="48" viewBox="0 0 48 48" fill="none" xmlns="http://www.w3.org/2000/svg">
<path d="M0 24C0 10.7452 10.7452 0 24 0C37.2548 0 48 10.7452 48 24C48 37.2548 37.2548 48 24 48C10.7452 48 0 37.2548 0 24Z" fill="#003685"/>
<g clip-path="url(#clip0_347_915)">
<path d="M28 33.9999V30.1299C28.0375 29.6531 27.9731 29.1737 27.811 28.7237C27.6489 28.2737 27.3929 27.8634 27.06 27.5199C30.2 27.1699 33.5 25.9799 33.5 20.5199C33.4997 19.1238 32.9627 17.7811 32 16.7699C32.4559 15.5484 32.4236 14.1983 31.91 12.9999C31.91 12.9999 30.73 12.6499 28 14.4799C25.708 13.8588 23.292 13.8588 21 14.4799C18.27 12.6499 17.09 12.9999 17.09 12.9999C16.5764 14.1983 16.5441 15.5484 17 16.7699C16.0301 17.7886 15.4925 19.1434 15.5 20.5499C15.5 25.9699 18.8 27.1599 21.94 27.5499C21.611 27.8899 21.3573 28.2953 21.1953 28.7399C21.0334 29.1844 20.9668 29.658 21 30.1299V33.9999M21 30.9999C16 32.4999 16 28.4999 14 27.9999L21 30.9999Z" stroke="#FEFEFF" stroke-width="2" stroke-linecap="round" stroke-linejoin="round"/>
</g>
<defs>
<clipPath id="clip0_347_915">
<rect width="24" height="24" fill="white" transform="translate(12 12)"/>
</clipPath>
</defs>
</svg>
