<svg width="48" height="48" viewBox="0 0 48 48" fill="none" xmlns="http://www.w3.org/2000/svg">
<path d="M0 24C0 10.7452 10.7452 0 24 0C37.2548 0 48 10.7452 48 24C48 37.2548 37.2548 48 24 48C10.7452 48 0 37.2548 0 24Z" fill="#003685"/>
<path d="M29 14H19C16.2386 14 14 16.2386 14 19V29C14 31.7614 16.2386 34 19 34H29C31.7614 34 34 31.7614 34 29V19C34 16.2386 31.7614 14 29 14Z" stroke="#FEFEFF" stroke-width="2" stroke-linecap="round" stroke-linejoin="round"/>
<path d="M28.0002 23.3701C28.1236 24.2023 27.9815 25.0523 27.594 25.7991C27.2065 26.5459 26.5933 27.1515 25.8418 27.5297C25.0903 27.908 24.2386 28.0397 23.408 27.906C22.5773 27.7723 21.81 27.3801 21.215 26.7852C20.6201 26.1903 20.2279 25.4229 20.0943 24.5923C19.9606 23.7616 20.0923 22.91 20.4705 22.1584C20.8488 21.4069 21.4544 20.7938 22.2012 20.4063C22.948 20.0188 23.7979 19.8766 24.6302 20.0001C25.4791 20.1259 26.265 20.5215 26.8719 21.1284C27.4787 21.7352 27.8743 22.5211 28.0002 23.3701Z" stroke="#FEFEFF" stroke-width="2" stroke-linecap="round" stroke-linejoin="round"/>
<path d="M29.5 18.5H29.51" stroke="#FEFEFF" stroke-width="2" stroke-linecap="round" stroke-linejoin="round"/>
</svg>
