<svg width="32" height="32" viewBox="0 0 32 32" fill="none" xmlns="http://www.w3.org/2000/svg">
<rect width="32" height="32" rx="16" fill="#003685"/>
<path fill-rule="evenodd" clip-rule="evenodd" d="M18.1667 14.375C17.4484 14.375 16.7595 14.6603 16.2516 15.1683C15.7437 15.6762 15.4583 16.365 15.4583 17.0833V20.3333H16.5417V17.0833C16.5417 16.6524 16.7129 16.239 17.0176 15.9343C17.3224 15.6295 17.7357 15.4583 18.1667 15.4583C18.5976 15.4583 19.011 15.6295 19.3157 15.9343C19.6205 16.239 19.7917 16.6524 19.7917 17.0833V20.3333H20.875V17.0833C20.875 16.365 20.5897 15.6762 20.0817 15.1683C19.5738 14.6603 18.885 14.375 18.1667 14.375ZM18.1667 13.2917C17.1611 13.2917 16.1966 13.6911 15.4856 14.4022C14.7745 15.1133 14.375 16.0777 14.375 17.0833V20.875C14.375 21.1742 14.6175 21.4167 14.9167 21.4167H17.0833C17.3825 21.4167 17.625 21.1742 17.625 20.875V17.0833C17.625 16.9397 17.6821 16.8019 17.7837 16.7003C17.8852 16.5987 18.023 16.5417 18.1667 16.5417C18.3103 16.5417 18.4481 16.5987 18.5497 16.7003C18.6513 16.8019 18.7083 16.9397 18.7083 17.0833V20.875C18.7083 21.1742 18.9508 21.4167 19.25 21.4167H21.4167C21.7158 21.4167 21.9583 21.1742 21.9583 20.875V17.0833C21.9583 16.0777 21.5589 15.1133 20.8478 14.4022C20.1367 13.6911 19.1723 13.2917 18.1667 13.2917Z" fill="#FCFCFD"/>
<path fill-rule="evenodd" clip-rule="evenodd" d="M10.0416 14.375C10.0416 14.0758 10.2841 13.8333 10.5833 13.8333H12.75C13.0491 13.8333 13.2916 14.0758 13.2916 14.375V20.875C13.2916 21.1742 13.0491 21.4167 12.75 21.4167H10.5833C10.2841 21.4167 10.0416 21.1742 10.0416 20.875V14.375ZM11.125 14.9167V20.3333H12.2083V14.9167H11.125Z" fill="#FCFCFD"/>
<path fill-rule="evenodd" clip-rule="evenodd" d="M11.6666 11.125C11.3675 11.125 11.125 11.3675 11.125 11.6667C11.125 11.9658 11.3675 12.2083 11.6666 12.2083C11.9658 12.2083 12.2083 11.9658 12.2083 11.6667C12.2083 11.3675 11.9658 11.125 11.6666 11.125ZM10.0416 11.6667C10.0416 10.7692 10.7692 10.0417 11.6666 10.0417C12.5641 10.0417 13.2916 10.7692 13.2916 11.6667C13.2916 12.5641 12.5641 13.2917 11.6666 13.2917C10.7692 13.2917 10.0416 12.5641 10.0416 11.6667Z" fill="#FCFCFD"/>
</svg>
