<svg width="32" height="32" viewBox="0 0 32 32" fill="none" xmlns="http://www.w3.org/2000/svg">
<path d="M0 16C0 7.16344 7.16344 0 16 0C24.8366 0 32 7.16344 32 16C32 24.8366 24.8366 32 16 32C7.16344 32 0 24.8366 0 16Z" fill="#003685"/>
<path d="M9.64161 9.64157H22.3585C23.2327 9.64157 23.9481 10.3569 23.9481 11.2312V20.7688C23.9481 21.6431 23.2327 22.3584 22.3585 22.3584H9.64161C8.76732 22.3584 8.052 21.6431 8.052 20.7688V11.2312C8.052 10.3569 8.76732 9.64157 9.64161 9.64157Z" stroke="#FCFCFD" stroke-width="1.58961" stroke-linecap="round" stroke-linejoin="round"/>
<path d="M23.9481 11.2312L16 16.7949L8.052 11.2312" stroke="#FCFCFD" stroke-width="1.58961" stroke-linecap="round" stroke-linejoin="round"/>
</svg>
