<svg width="48" height="48" viewBox="0 0 48 48" fill="none" xmlns="http://www.w3.org/2000/svg">
<path d="M0 24C0 10.7452 10.7452 0 24 0C37.2548 0 48 10.7452 48 24C48 37.2548 37.2548 48 24 48C10.7452 48 0 37.2548 0 24Z" fill="#003685"/>
<path d="M35 15C34.0424 15.6755 32.9821 16.1922 31.86 16.53C31.2577 15.8376 30.4573 15.3467 29.567 15.124C28.6767 14.9012 27.7395 14.9572 26.8821 15.2845C26.0247 15.6118 25.2884 16.1944 24.773 16.9538C24.2575 17.7131 23.9877 18.6124 24 19.53V20.53C22.2426 20.5756 20.5013 20.1859 18.931 19.3955C17.3607 18.6051 16.0103 17.4387 15 16C15 16 11 25 20 29C17.9405 30.398 15.4872 31.099 13 31C22 36 33 31 33 19.5C32.9991 19.2215 32.9723 18.9436 32.92 18.67C33.9406 17.6635 34.6608 16.3928 35 15V15Z" stroke="#FEFEFF" stroke-width="2" stroke-linecap="round" stroke-linejoin="round"/>
</svg>
